<svg width="188" height="26" viewBox="0 0 188 26" fill="none" xmlns="http://www.w3.org/2000/svg">
<path d="M7.48 21.24C5.16 21.24 3.352 20.592 2.056 19.296C0.76 17.984 0.112 16.112 0.112 13.68V4.2H3.232V13.56C3.232 16.856 4.656 18.504 7.504 18.504C10.336 18.504 11.752 16.856 11.752 13.56V4.2H14.824V13.68C14.824 16.112 14.176 17.984 12.88 19.296C11.6 20.592 9.8 21.24 7.48 21.24ZM19.1935 4.2H22.3135V21H19.1935V4.2ZM31.8016 0.791998H34.4896L26.5696 23.4H23.8816L31.8016 0.791998ZM42.9878 21.24C40.6678 21.24 38.8598 20.592 37.5638 19.296C36.2678 17.984 35.6198 16.112 35.6198 13.68V4.2H38.7398V13.56C38.7398 16.856 40.1638 18.504 43.0118 18.504C45.8438 18.504 47.2598 16.856 47.2598 13.56V4.2H50.3318V13.68C50.3318 16.112 49.6838 17.984 48.3878 19.296C47.1078 20.592 45.3078 21.24 42.9878 21.24ZM65.0509 21L60.4909 14.616L55.9789 21H52.4269L58.6669 12.432L52.7629 4.2H56.2909L60.5869 10.176L64.8349 4.2H68.2189L62.3389 12.312L68.6509 21H65.0509ZM77.7404 4.2H85.0844C86.8764 4.2 88.4684 4.552 89.8604 5.256C91.2524 5.944 92.3324 6.928 93.1004 8.208C93.8684 9.472 94.2524 10.936 94.2524 12.6C94.2524 14.264 93.8684 15.736 93.1004 17.016C92.3324 18.28 91.2524 19.264 89.8604 19.968C88.4684 20.656 86.8764 21 85.0844 21H77.7404V4.2ZM84.9404 18.36C86.1724 18.36 87.2524 18.128 88.1804 17.664C89.1244 17.184 89.8444 16.512 90.3404 15.648C90.8524 14.768 91.1084 13.752 91.1084 12.6C91.1084 11.448 90.8524 10.44 90.3404 9.576C89.8444 8.696 89.1244 8.024 88.1804 7.56C87.2524 7.08 86.1724 6.84 84.9404 6.84H80.8604V18.36H84.9404ZM109.329 14.664C109.329 14.872 109.313 15.168 109.281 15.552H99.2245C99.4005 16.496 99.8565 17.248 100.593 17.808C101.345 18.352 102.273 18.624 103.377 18.624C104.785 18.624 105.945 18.16 106.857 17.232L108.465 19.08C107.889 19.768 107.161 20.288 106.281 20.64C105.401 20.992 104.409 21.168 103.305 21.168C101.897 21.168 100.657 20.888 99.5845 20.328C98.5125 19.768 97.6805 18.992 97.0885 18C96.5125 16.992 96.2245 15.856 96.2245 14.592C96.2245 13.344 96.5045 12.224 97.0645 11.232C97.6405 10.224 98.4325 9.44 99.4405 8.88C100.449 8.32 101.585 8.04 102.849 8.04C104.097 8.04 105.209 8.32 106.185 8.88C107.177 9.424 107.945 10.2 108.489 11.208C109.049 12.2 109.329 13.352 109.329 14.664ZM102.849 10.44C101.889 10.44 101.073 10.728 100.401 11.304C99.7445 11.864 99.3445 12.616 99.2005 13.56H106.473C106.345 12.632 105.953 11.88 105.297 11.304C104.641 10.728 103.825 10.44 102.849 10.44ZM116.17 21.168C115.13 21.168 114.114 21.032 113.122 20.76C112.13 20.488 111.338 20.144 110.746 19.728L111.898 17.448C112.474 17.832 113.162 18.144 113.962 18.384C114.778 18.608 115.578 18.72 116.362 18.72C118.154 18.72 119.05 18.248 119.05 17.304C119.05 16.856 118.818 16.544 118.354 16.368C117.906 16.192 117.178 16.024 116.17 15.864C115.114 15.704 114.25 15.52 113.578 15.312C112.922 15.104 112.346 14.744 111.85 14.232C111.37 13.704 111.13 12.976 111.13 12.048C111.13 10.832 111.634 9.864 112.642 9.144C113.666 8.408 115.042 8.04 116.77 8.04C117.65 8.04 118.53 8.144 119.41 8.352C120.29 8.544 121.01 8.808 121.57 9.144L120.418 11.424C119.33 10.784 118.106 10.464 116.746 10.464C115.866 10.464 115.194 10.6 114.73 10.872C114.282 11.128 114.058 11.472 114.058 11.904C114.058 12.384 114.298 12.728 114.778 12.936C115.274 13.128 116.034 13.312 117.058 13.488C118.082 13.648 118.922 13.832 119.578 14.04C120.234 14.248 120.794 14.6 121.258 15.096C121.738 15.592 121.978 16.296 121.978 17.208C121.978 18.408 121.458 19.368 120.418 20.088C119.378 20.808 117.962 21.168 116.17 21.168ZM124.562 8.184H127.562V21H124.562V8.184ZM126.074 6.072C125.53 6.072 125.074 5.904 124.706 5.568C124.338 5.216 124.154 4.784 124.154 4.272C124.154 3.76 124.338 3.336 124.706 3C125.074 2.648 125.53 2.472 126.074 2.472C126.618 2.472 127.074 2.64 127.442 2.976C127.81 3.296 127.994 3.704 127.994 4.2C127.994 4.728 127.81 5.176 127.442 5.544C127.09 5.896 126.634 6.072 126.074 6.072ZM144.219 8.184V19.056C144.219 23.568 141.915 25.824 137.307 25.824C136.075 25.824 134.907 25.664 133.803 25.344C132.699 25.04 131.787 24.592 131.067 24L132.411 21.744C132.971 22.208 133.675 22.576 134.523 22.848C135.387 23.136 136.259 23.28 137.139 23.28C138.547 23.28 139.579 22.96 140.235 22.32C140.891 21.68 141.219 20.704 141.219 19.392V18.72C140.707 19.28 140.083 19.704 139.347 19.992C138.611 20.28 137.803 20.424 136.923 20.424C135.707 20.424 134.603 20.168 133.611 19.656C132.635 19.128 131.859 18.392 131.283 17.448C130.723 16.504 130.443 15.424 130.443 14.208C130.443 12.992 130.723 11.92 131.283 10.992C131.859 10.048 132.635 9.32 133.611 8.808C134.603 8.296 135.707 8.04 136.923 8.04C137.851 8.04 138.691 8.192 139.443 8.496C140.211 8.8 140.851 9.264 141.363 9.888V8.184H144.219ZM137.379 17.88C138.515 17.88 139.443 17.544 140.163 16.872C140.899 16.184 141.267 15.296 141.267 14.208C141.267 13.136 140.899 12.264 140.163 11.592C139.443 10.92 138.515 10.584 137.379 10.584C136.227 10.584 135.283 10.92 134.547 11.592C133.827 12.264 133.467 13.136 133.467 14.208C133.467 15.296 133.827 16.184 134.547 16.872C135.283 17.544 136.227 17.88 137.379 17.88ZM155.435 8.04C157.051 8.04 158.347 8.512 159.323 9.456C160.299 10.4 160.787 11.8 160.787 13.656V21H157.787V14.04C157.787 12.92 157.523 12.08 156.995 11.52C156.467 10.944 155.715 10.656 154.739 10.656C153.635 10.656 152.763 10.992 152.123 11.664C151.483 12.32 151.163 13.272 151.163 14.52V21H148.163V8.184H151.019V9.84C151.515 9.248 152.139 8.8 152.891 8.496C153.643 8.192 154.491 8.04 155.435 8.04ZM176.758 14.664C176.758 14.872 176.742 15.168 176.71 15.552H166.654C166.83 16.496 167.286 17.248 168.022 17.808C168.774 18.352 169.702 18.624 170.806 18.624C172.214 18.624 173.374 18.16 174.286 17.232L175.894 19.08C175.318 19.768 174.59 20.288 173.71 20.64C172.83 20.992 171.838 21.168 170.734 21.168C169.326 21.168 168.086 20.888 167.014 20.328C165.942 19.768 165.11 18.992 164.518 18C163.942 16.992 163.654 15.856 163.654 14.592C163.654 13.344 163.934 12.224 164.494 11.232C165.07 10.224 165.862 9.44 166.87 8.88C167.878 8.32 169.014 8.04 170.278 8.04C171.526 8.04 172.638 8.32 173.614 8.88C174.606 9.424 175.374 10.2 175.918 11.208C176.478 12.2 176.758 13.352 176.758 14.664ZM170.278 10.44C169.318 10.44 168.502 10.728 167.83 11.304C167.174 11.864 166.774 12.616 166.63 13.56H173.902C173.774 12.632 173.382 11.88 172.726 11.304C172.07 10.728 171.254 10.44 170.278 10.44ZM182.496 10.056C183.36 8.712 184.88 8.04 187.056 8.04V10.896C186.8 10.848 186.568 10.824 186.36 10.824C185.192 10.824 184.28 11.168 183.624 11.856C182.968 12.528 182.64 13.504 182.64 14.784V21H179.64V8.184H182.496V10.056Z" fill="white"/>
</svg>
