<svg width="74" height="74" viewBox="0 0 74 74" fill="none" xmlns="http://www.w3.org/2000/svg">
<rect width="74" height="74" rx="24" fill="#FEFEFF"/>
<path d="M37.3846 55.387C42.4795 55.387 46.7567 53.748 49.8809 50.9209L43.9262 46.4137C42.3328 47.4995 40.1941 48.2575 37.3846 48.2575C32.3945 48.2575 28.1592 45.0412 26.6494 40.5956L26.4281 40.6139L20.6033 45.0186L20.5271 45.2255C23.6302 51.2486 30.0042 55.387 37.3846 55.387Z" fill="#34A853"/>
<path d="M55.4999 37.359C55.4999 35.843 55.374 34.7367 55.1015 33.5895H37.3844V40.432H47.7839C47.5743 42.1325 46.4421 44.6933 43.926 46.4141L43.8908 46.6432L49.4926 50.8835L49.8807 50.9213C53.445 47.7048 55.4999 42.9724 55.4999 37.359Z" fill="#4285F4"/>
<path d="M26.6495 40.5957C26.2511 39.4485 26.0206 38.2192 26.0206 36.9491C26.0206 35.6788 26.2511 34.4497 26.6285 33.3024L26.618 33.0581L20.7202 28.5826L20.5272 28.6723C19.2483 31.1717 18.5144 33.9785 18.5144 36.9491C18.5144 39.9197 19.2483 42.7263 20.5272 45.2257L26.6495 40.5957Z" fill="#FBBC05"/>
<path d="M37.3846 25.6403C40.9279 25.6403 43.3181 27.1359 44.681 28.3857L50.0066 23.3049C46.7359 20.3343 42.4795 18.511 37.3846 18.511C30.0042 18.511 23.6302 22.6493 20.5271 28.6724L26.6285 33.3024C28.1592 28.8568 32.3945 25.6403 37.3846 25.6403Z" fill="#EB4335"/>
</svg>
