<svg width="86" height="18" viewBox="0 0 86 18" fill="none" xmlns="http://www.w3.org/2000/svg">
<path d="M10.692 11.436C10.692 12.408 10.332 13.236 9.612 13.92C8.904 14.592 7.872 15 6.516 15.144V17.16H5.04V15.162C4.152 15.102 3.312 14.94 2.52 14.676C1.728 14.412 1.098 14.076 0.63 13.668L1.44 11.85C1.884 12.21 2.424 12.516 3.06 12.768C3.696 13.008 4.356 13.158 5.04 13.218V9.618C4.188 9.414 3.474 9.192 2.898 8.952C2.334 8.7 1.86 8.34 1.476 7.872C1.092 7.392 0.9 6.762 0.9 5.982C0.9 5.01 1.254 4.182 1.962 3.498C2.67 2.814 3.696 2.406 5.04 2.274V0.239999H6.516V2.238C7.188 2.274 7.842 2.388 8.478 2.58C9.126 2.772 9.69 3.024 10.17 3.336L9.432 5.154C8.52 4.626 7.548 4.302 6.516 4.182V7.818C7.38 8.022 8.094 8.244 8.658 8.484C9.234 8.724 9.714 9.084 10.098 9.564C10.494 10.032 10.692 10.656 10.692 11.436ZM3.222 5.874C3.222 6.27 3.378 6.588 3.69 6.828C4.002 7.068 4.452 7.272 5.04 7.44V4.236C4.428 4.332 3.972 4.524 3.672 4.812C3.372 5.1 3.222 5.454 3.222 5.874ZM6.516 13.182C7.152 13.086 7.62 12.9 7.92 12.624C8.232 12.348 8.388 12.006 8.388 11.598C8.388 11.19 8.226 10.866 7.902 10.626C7.578 10.374 7.116 10.164 6.516 9.996V13.182ZM20.2843 8.376C20.9443 8.676 21.4483 9.084 21.7963 9.6C22.1563 10.104 22.3363 10.698 22.3363 11.382C22.3363 12.15 22.1203 12.822 21.6883 13.398C21.2683 13.974 20.6683 14.418 19.8883 14.73C19.1083 15.03 18.2023 15.18 17.1703 15.18C16.1383 15.18 15.2323 15.03 14.4523 14.73C13.6843 14.418 13.0903 13.974 12.6703 13.398C12.2503 12.822 12.0403 12.15 12.0403 11.382C12.0403 10.698 12.2143 10.104 12.5623 9.6C12.9103 9.084 13.4083 8.676 14.0563 8.376C13.5523 8.1 13.1623 7.74 12.8863 7.296C12.6223 6.84 12.4903 6.318 12.4903 5.73C12.4903 5.022 12.6823 4.404 13.0663 3.876C13.4623 3.348 14.0143 2.94 14.7223 2.652C15.4303 2.364 16.2463 2.22 17.1703 2.22C18.1063 2.22 18.9283 2.364 19.6363 2.652C20.3443 2.94 20.8963 3.348 21.2923 3.876C21.6883 4.404 21.8863 5.022 21.8863 5.73C21.8863 6.318 21.7483 6.834 21.4723 7.278C21.1963 7.722 20.8003 8.088 20.2843 8.376ZM17.1703 4.056C16.4383 4.056 15.8563 4.212 15.4243 4.524C15.0043 4.836 14.7943 5.274 14.7943 5.838C14.7943 6.378 15.0043 6.81 15.4243 7.134C15.8563 7.446 16.4383 7.602 17.1703 7.602C17.9143 7.602 18.5023 7.446 18.9343 7.134C19.3663 6.81 19.5823 6.378 19.5823 5.838C19.5823 5.274 19.3603 4.836 18.9163 4.524C18.4843 4.212 17.9023 4.056 17.1703 4.056ZM17.1703 13.344C18.0343 13.344 18.7183 13.164 19.2223 12.804C19.7263 12.444 19.9783 11.946 19.9783 11.31C19.9783 10.686 19.7263 10.194 19.2223 9.834C18.7183 9.474 18.0343 9.294 17.1703 9.294C16.3063 9.294 15.6283 9.474 15.1363 9.834C14.6443 10.194 14.3983 10.686 14.3983 11.31C14.3983 11.946 14.6443 12.444 15.1363 12.804C15.6283 13.164 16.3063 13.344 17.1703 13.344ZM28.4625 10.878L26.7885 12.462V15H24.5385V1.644H26.7885V9.708L31.4505 5.388H34.1505L30.1365 9.42L34.5285 15H31.7925L28.4625 10.878ZM40.4705 9.06H45.4205V10.932H40.4705V9.06ZM62.0729 11.436C62.0729 12.408 61.7129 13.236 60.9929 13.92C60.2849 14.592 59.2529 15 57.8969 15.144V17.16H56.4209V15.162C55.5329 15.102 54.6929 14.94 53.9009 14.676C53.1089 14.412 52.4789 14.076 52.0109 13.668L52.8209 11.85C53.2649 12.21 53.8049 12.516 54.4409 12.768C55.0769 13.008 55.7369 13.158 56.4209 13.218V9.618C55.5689 9.414 54.8549 9.192 54.2789 8.952C53.7149 8.7 53.2409 8.34 52.8569 7.872C52.4729 7.392 52.2809 6.762 52.2809 5.982C52.2809 5.01 52.6349 4.182 53.3429 3.498C54.0509 2.814 55.0769 2.406 56.4209 2.274V0.239999H57.8969V2.238C58.5689 2.274 59.2229 2.388 59.8589 2.58C60.5069 2.772 61.0709 3.024 61.5509 3.336L60.8129 5.154C59.9009 4.626 58.9289 4.302 57.8969 4.182V7.818C58.7609 8.022 59.4749 8.244 60.0389 8.484C60.6149 8.724 61.0949 9.084 61.4789 9.564C61.8749 10.032 62.0729 10.656 62.0729 11.436ZM54.6029 5.874C54.6029 6.27 54.7589 6.588 55.0709 6.828C55.3829 7.068 55.8329 7.272 56.4209 7.44V4.236C55.8089 4.332 55.3529 4.524 55.0529 4.812C54.7529 5.1 54.6029 5.454 54.6029 5.874ZM57.8969 13.182C58.5329 13.086 59.0009 12.9 59.3009 12.624C59.6129 12.348 59.7689 12.006 59.7689 11.598C59.7689 11.19 59.6069 10.866 59.2829 10.626C58.9589 10.374 58.4969 10.164 57.8969 9.996V13.182ZM69.2172 7.224C70.0452 7.224 70.7892 7.386 71.4492 7.71C72.1092 8.022 72.6252 8.472 72.9972 9.06C73.3692 9.648 73.5552 10.326 73.5552 11.094C73.5552 11.91 73.3512 12.63 72.9432 13.254C72.5352 13.866 71.9832 14.34 71.2872 14.676C70.5912 15.012 69.8112 15.18 68.9472 15.18C67.2192 15.18 65.8752 14.64 64.9152 13.56C63.9672 12.48 63.4932 10.932 63.4932 8.916C63.4932 7.5 63.7512 6.294 64.2672 5.298C64.7832 4.29 65.5032 3.528 66.4272 3.012C67.3632 2.484 68.4432 2.22 69.6672 2.22C70.3152 2.22 70.9212 2.292 71.4852 2.436C72.0612 2.568 72.5592 2.766 72.9792 3.03L72.1152 4.794C71.4912 4.386 70.6932 4.182 69.7212 4.182C68.5092 4.182 67.5612 4.554 66.8772 5.298C66.1932 6.042 65.8512 7.116 65.8512 8.52V8.538C66.2232 8.106 66.6972 7.782 67.2732 7.566C67.8492 7.338 68.4972 7.224 69.2172 7.224ZM68.8212 13.344C69.5532 13.344 70.1472 13.152 70.6032 12.768C71.0592 12.372 71.2872 11.85 71.2872 11.202C71.2872 10.542 71.0592 10.02 70.6032 9.636C70.1472 9.252 69.5352 9.06 68.7672 9.06C68.0112 9.06 67.3932 9.264 66.9132 9.672C66.4452 10.08 66.2112 10.596 66.2112 11.22C66.2112 11.832 66.4392 12.342 66.8952 12.75C67.3632 13.146 68.0052 13.344 68.8212 13.344ZM79.3863 10.878L77.7123 12.462V15H75.4623V1.644H77.7123V9.708L82.3743 5.388H85.0743L81.0603 9.42L85.4523 15H82.7163L79.3863 10.878Z" fill="#D6D6D6"/>
</svg>
