<svg width="218" height="17" viewBox="0 0 218 17" fill="none" xmlns="http://www.w3.org/2000/svg">
<path d="M9.768 10.408H4.168L3.064 13H0.92L5.96 1.8H8.008L13.064 13H10.888L9.768 10.408ZM9.08 8.776L6.968 3.88L4.872 8.776H9.08ZM19.0324 4.36C19.8644 4.36 20.6057 4.54133 21.2564 4.904C21.9177 5.26667 22.435 5.77867 22.8084 6.44C23.1817 7.10133 23.3684 7.864 23.3684 8.728C23.3684 9.592 23.1817 10.36 22.8084 11.032C22.435 11.6933 21.9177 12.2053 21.2564 12.568C20.6057 12.9307 19.8644 13.112 19.0324 13.112C17.8804 13.112 16.9684 12.728 16.2964 11.96V16.104H14.2964V4.456H16.2004V5.576C16.531 5.17067 16.9364 4.86667 17.4164 4.664C17.907 4.46133 18.4457 4.36 19.0324 4.36ZM18.8084 11.4C19.5444 11.4 20.147 11.1547 20.6164 10.664C21.0964 10.1733 21.3364 9.528 21.3364 8.728C21.3364 7.928 21.0964 7.28267 20.6164 6.792C20.147 6.30133 19.5444 6.056 18.8084 6.056C18.3284 6.056 17.8964 6.168 17.5124 6.392C17.1284 6.60533 16.8244 6.91467 16.6004 7.32C16.3764 7.72533 16.2644 8.19467 16.2644 8.728C16.2644 9.26133 16.3764 9.73067 16.6004 10.136C16.8244 10.5413 17.1284 10.856 17.5124 11.08C17.8964 11.2933 18.3284 11.4 18.8084 11.4ZM30.0011 4.36C30.8331 4.36 31.5745 4.54133 32.2251 4.904C32.8865 5.26667 33.4038 5.77867 33.7771 6.44C34.1505 7.10133 34.3371 7.864 34.3371 8.728C34.3371 9.592 34.1505 10.36 33.7771 11.032C33.4038 11.6933 32.8865 12.2053 32.2251 12.568C31.5745 12.9307 30.8331 13.112 30.0011 13.112C28.8491 13.112 27.9371 12.728 27.2651 11.96V16.104H25.2651V4.456H27.1691V5.576C27.4998 5.17067 27.9051 4.86667 28.3851 4.664C28.8758 4.46133 29.4145 4.36 30.0011 4.36ZM29.7771 11.4C30.5131 11.4 31.1158 11.1547 31.5851 10.664C32.0651 10.1733 32.3051 9.528 32.3051 8.728C32.3051 7.928 32.0651 7.28267 31.5851 6.792C31.1158 6.30133 30.5131 6.056 29.7771 6.056C29.2971 6.056 28.8651 6.168 28.4811 6.392C28.0971 6.60533 27.7931 6.91467 27.5691 7.32C27.3451 7.72533 27.2331 8.19467 27.2331 8.728C27.2331 9.26133 27.3451 9.73067 27.5691 10.136C27.7931 10.5413 28.0971 10.856 28.4811 11.08C28.8651 11.2933 29.2971 11.4 29.7771 11.4ZM36.2339 1.128H38.2339V13H36.2339V1.128ZM48.8589 4.456L44.8589 13.688C44.4855 14.616 44.0322 15.2667 43.4989 15.64C42.9655 16.024 42.3202 16.216 41.5629 16.216C41.1362 16.216 40.7149 16.1467 40.2989 16.008C39.8829 15.8693 39.5415 15.6773 39.2749 15.432L40.0749 13.96C40.2669 14.1413 40.4909 14.2853 40.7469 14.392C41.0135 14.4987 41.2802 14.552 41.5469 14.552C41.8989 14.552 42.1869 14.4613 42.4109 14.28C42.6455 14.0987 42.8589 13.7947 43.0509 13.368L43.1949 13.032L39.4669 4.456H41.5469L44.2349 10.776L46.9389 4.456H48.8589ZM58.0028 2.632C57.1601 2.632 56.7388 3.09067 56.7388 4.008V4.52H59.0908V6.12H56.8028V13H54.8028V6.12H53.3948V4.52H54.8028V3.976C54.8028 3.05867 55.0694 2.33867 55.6028 1.816C56.1361 1.28267 56.8881 1.016 57.8588 1.016C58.6268 1.016 59.2294 1.17067 59.6668 1.48L59.1068 2.984C58.7654 2.74933 58.3974 2.632 58.0028 2.632ZM64.152 13.112C63.288 13.112 62.5093 12.9253 61.816 12.552C61.1227 12.1787 60.5787 11.6613 60.184 11C59.8 10.328 59.608 9.57067 59.608 8.728C59.608 7.88533 59.8 7.13333 60.184 6.472C60.5787 5.81067 61.1227 5.29333 61.816 4.92C62.5093 4.54667 63.288 4.36 64.152 4.36C65.0267 4.36 65.8107 4.54667 66.504 4.92C67.1973 5.29333 67.736 5.81067 68.12 6.472C68.5147 7.13333 68.712 7.88533 68.712 8.728C68.712 9.57067 68.5147 10.328 68.12 11C67.736 11.6613 67.1973 12.1787 66.504 12.552C65.8107 12.9253 65.0267 13.112 64.152 13.112ZM64.152 11.4C64.888 11.4 65.496 11.1547 65.976 10.664C66.456 10.1733 66.696 9.528 66.696 8.728C66.696 7.928 66.456 7.28267 65.976 6.792C65.496 6.30133 64.888 6.056 64.152 6.056C63.416 6.056 62.808 6.30133 62.328 6.792C61.8587 7.28267 61.624 7.928 61.624 8.728C61.624 9.528 61.8587 10.1733 62.328 10.664C62.808 11.1547 63.416 11.4 64.152 11.4ZM72.5285 5.704C73.1045 4.808 74.1178 4.36 75.5685 4.36V6.264C75.3978 6.232 75.2432 6.216 75.1045 6.216C74.3258 6.216 73.7178 6.44533 73.2805 6.904C72.8432 7.352 72.6245 8.00267 72.6245 8.856V13H70.6245V4.456H72.5285V5.704ZM87.2051 13.192C86.0425 13.192 84.9918 12.9413 84.0531 12.44C83.1251 11.9387 82.3945 11.2507 81.8611 10.376C81.3385 9.49067 81.0771 8.49867 81.0771 7.4C81.0771 6.30133 81.3385 5.31467 81.8611 4.44C82.3945 3.55467 83.1251 2.86133 84.0531 2.36C84.9918 1.85867 86.0425 1.608 87.2051 1.608C88.3678 1.608 89.4131 1.85867 90.3411 2.36C91.2691 2.86133 91.9998 3.55467 92.5331 4.44C93.0665 5.31467 93.3331 6.30133 93.3331 7.4C93.3331 8.49867 93.0665 9.49067 92.5331 10.376C91.9998 11.2507 91.2691 11.9387 90.3411 12.44C89.4131 12.9413 88.3678 13.192 87.2051 13.192ZM87.2051 10.984C87.8665 10.984 88.4638 10.8347 88.9971 10.536C89.5305 10.2267 89.9465 9.8 90.2451 9.256C90.5545 8.712 90.7091 8.09333 90.7091 7.4C90.7091 6.70667 90.5545 6.088 90.2451 5.544C89.9465 5 89.5305 4.57867 88.9971 4.28C88.4638 3.97067 87.8665 3.816 87.2051 3.816C86.5438 3.816 85.9465 3.97067 85.4131 4.28C84.8798 4.57867 84.4585 5 84.1491 5.544C83.8505 6.088 83.7011 6.70667 83.7011 7.4C83.7011 8.09333 83.8505 8.712 84.1491 9.256C84.4585 9.8 84.8798 10.2267 85.4131 10.536C85.9465 10.8347 86.5438 10.984 87.2051 10.984ZM100.337 4.264C101.404 4.264 102.262 4.584 102.913 5.224C103.574 5.864 103.905 6.81333 103.905 8.072V13H101.409V8.456C101.409 7.77333 101.26 7.26667 100.961 6.936C100.662 6.59467 100.23 6.424 99.6651 6.424C99.0358 6.424 98.5345 6.62133 98.1611 7.016C97.7878 7.4 97.6011 7.976 97.6011 8.744V13H95.1051V4.392H97.4891V5.4C97.8198 5.03733 98.2305 4.76 98.7211 4.568C99.2118 4.36533 99.7505 4.264 100.337 4.264ZM109.064 13.128C108.349 13.128 107.65 13.0427 106.968 12.872C106.285 12.6907 105.741 12.4667 105.336 12.2L106.168 10.408C106.552 10.6533 107.016 10.856 107.56 11.016C108.104 11.1653 108.637 11.24 109.16 11.24C110.216 11.24 110.744 10.9787 110.744 10.456C110.744 10.2107 110.6 10.0347 110.312 9.928C110.024 9.82133 109.581 9.73067 108.984 9.656C108.28 9.54933 107.698 9.42667 107.24 9.288C106.781 9.14933 106.381 8.904 106.04 8.552C105.709 8.2 105.544 7.69867 105.544 7.048C105.544 6.504 105.698 6.024 106.008 5.608C106.328 5.18133 106.786 4.85067 107.384 4.616C107.992 4.38133 108.706 4.264 109.528 4.264C110.136 4.264 110.738 4.33333 111.336 4.472C111.944 4.6 112.445 4.78133 112.84 5.016L112.008 6.792C111.25 6.36533 110.424 6.152 109.528 6.152C108.994 6.152 108.594 6.22667 108.328 6.376C108.061 6.52533 107.928 6.71733 107.928 6.952C107.928 7.21867 108.072 7.40533 108.36 7.512C108.648 7.61867 109.106 7.72 109.736 7.816C110.44 7.93333 111.016 8.06133 111.464 8.2C111.912 8.328 112.301 8.568 112.632 8.92C112.962 9.272 113.128 9.76267 113.128 10.392C113.128 10.9253 112.968 11.4 112.648 11.816C112.328 12.232 111.858 12.5573 111.24 12.792C110.632 13.016 109.906 13.128 109.064 13.128ZM114.668 4.392H117.164V13H114.668V4.392ZM115.916 3.192C115.457 3.192 115.084 3.05867 114.796 2.792C114.508 2.52533 114.364 2.19467 114.364 1.8C114.364 1.40533 114.508 1.07467 114.796 0.808C115.084 0.541333 115.457 0.407999 115.916 0.407999C116.374 0.407999 116.748 0.535999 117.036 0.792C117.324 1.048 117.468 1.368 117.468 1.752C117.468 2.168 117.324 2.51467 117.036 2.792C116.748 3.05867 116.374 3.192 115.916 3.192ZM125.032 12.584C124.787 12.7653 124.483 12.904 124.12 13C123.768 13.0853 123.395 13.128 123 13.128C121.976 13.128 121.181 12.8667 120.616 12.344C120.061 11.8213 119.784 11.0533 119.784 10.04V6.504H118.456V4.584H119.784V2.488H122.28V4.584H124.424V6.504H122.28V10.008C122.28 10.3707 122.371 10.6533 122.552 10.856C122.744 11.048 123.011 11.144 123.352 11.144C123.747 11.144 124.083 11.0373 124.36 10.824L125.032 12.584ZM134.6 8.728C134.6 8.76 134.584 8.984 134.552 9.4H128.04C128.157 9.93333 128.434 10.3547 128.872 10.664C129.309 10.9733 129.853 11.128 130.504 11.128C130.952 11.128 131.346 11.064 131.688 10.936C132.04 10.7973 132.365 10.584 132.664 10.296L133.992 11.736C133.181 12.664 131.997 13.128 130.44 13.128C129.469 13.128 128.61 12.9413 127.864 12.568C127.117 12.184 126.541 11.656 126.136 10.984C125.73 10.312 125.528 9.54933 125.528 8.696C125.528 7.85333 125.725 7.096 126.12 6.424C126.525 5.74133 127.074 5.21333 127.768 4.84C128.472 4.456 129.256 4.264 130.12 4.264C130.962 4.264 131.725 4.44533 132.408 4.808C133.09 5.17067 133.624 5.69333 134.008 6.376C134.402 7.048 134.6 7.832 134.6 8.728ZM130.136 6.152C129.57 6.152 129.096 6.312 128.712 6.632C128.328 6.952 128.093 7.38933 128.008 7.944H132.248C132.162 7.4 131.928 6.968 131.544 6.648C131.16 6.31733 130.69 6.152 130.136 6.152ZM141.035 1.8H143.115V13H141.035V1.8ZM150.801 4.36C151.878 4.36 152.742 4.67467 153.393 5.304C154.043 5.93333 154.369 6.86667 154.369 8.104V13H152.369V8.36C152.369 7.61333 152.193 7.05333 151.841 6.68C151.489 6.296 150.987 6.104 150.337 6.104C149.601 6.104 149.019 6.328 148.593 6.776C148.166 7.21333 147.953 7.848 147.953 8.68V13H145.953V4.456H147.857V5.56C148.187 5.16533 148.603 4.86667 149.105 4.664C149.606 4.46133 150.171 4.36 150.801 4.36ZM162.042 12.536C161.807 12.728 161.519 12.872 161.178 12.968C160.847 13.064 160.495 13.112 160.122 13.112C159.183 13.112 158.458 12.8667 157.946 12.376C157.434 11.8853 157.178 11.1707 157.178 10.232V6.12H155.77V4.52H157.178V2.568H159.178V4.52H161.466V6.12H159.178V10.184C159.178 10.6 159.279 10.92 159.482 11.144C159.684 11.3573 159.978 11.464 160.362 11.464C160.81 11.464 161.183 11.3467 161.482 11.112L162.042 12.536ZM171.438 8.776C171.438 8.91467 171.427 9.112 171.406 9.368H164.702C164.819 9.99733 165.123 10.4987 165.614 10.872C166.115 11.2347 166.734 11.416 167.47 11.416C168.408 11.416 169.182 11.1067 169.79 10.488L170.862 11.72C170.478 12.1787 169.992 12.5253 169.406 12.76C168.819 12.9947 168.158 13.112 167.422 13.112C166.483 13.112 165.656 12.9253 164.942 12.552C164.227 12.1787 163.672 11.6613 163.278 11C162.894 10.328 162.702 9.57067 162.702 8.728C162.702 7.896 162.888 7.14933 163.262 6.488C163.646 5.816 164.174 5.29333 164.846 4.92C165.518 4.54667 166.275 4.36 167.118 4.36C167.95 4.36 168.691 4.54667 169.342 4.92C170.003 5.28267 170.515 5.8 170.878 6.472C171.251 7.13333 171.438 7.90133 171.438 8.776ZM167.118 5.96C166.478 5.96 165.934 6.152 165.486 6.536C165.048 6.90933 164.782 7.41067 164.686 8.04H169.534C169.448 7.42133 169.187 6.92 168.75 6.536C168.312 6.152 167.768 5.96 167.118 5.96ZM175.263 5.704C175.839 4.808 176.852 4.36 178.303 4.36V6.264C178.132 6.232 177.978 6.216 177.839 6.216C177.06 6.216 176.452 6.44533 176.015 6.904C175.578 7.352 175.359 8.00267 175.359 8.856V13H173.359V4.456H175.263V5.704ZM188.312 4.456L184.648 13H182.584L178.92 4.456H181L183.656 10.792L186.392 4.456H188.312ZM189.562 4.456H191.562V13H189.562V4.456ZM190.57 3.048C190.207 3.048 189.903 2.936 189.658 2.712C189.413 2.47733 189.29 2.18933 189.29 1.848C189.29 1.50667 189.413 1.224 189.658 0.999999C189.903 0.765333 190.207 0.648 190.57 0.648C190.933 0.648 191.237 0.76 191.482 0.983999C191.727 1.19733 191.85 1.46933 191.85 1.8C191.85 2.152 191.727 2.45067 191.482 2.696C191.247 2.93067 190.943 3.048 190.57 3.048ZM202.219 8.776C202.219 8.91467 202.208 9.112 202.187 9.368H195.483C195.6 9.99733 195.904 10.4987 196.395 10.872C196.896 11.2347 197.515 11.416 198.251 11.416C199.19 11.416 199.963 11.1067 200.571 10.488L201.643 11.72C201.259 12.1787 200.774 12.5253 200.187 12.76C199.6 12.9947 198.939 13.112 198.203 13.112C197.264 13.112 196.438 12.9253 195.723 12.552C195.008 12.1787 194.454 11.6613 194.059 11C193.675 10.328 193.483 9.57067 193.483 8.728C193.483 7.896 193.67 7.14933 194.043 6.488C194.427 5.816 194.955 5.29333 195.627 4.92C196.299 4.54667 197.056 4.36 197.899 4.36C198.731 4.36 199.472 4.54667 200.123 4.92C200.784 5.28267 201.296 5.8 201.659 6.472C202.032 7.13333 202.219 7.90133 202.219 8.776ZM197.899 5.96C197.259 5.96 196.715 6.152 196.267 6.536C195.83 6.90933 195.563 7.41067 195.467 8.04H200.315C200.23 7.42133 199.968 6.92 199.531 6.536C199.094 6.152 198.55 5.96 197.899 5.96ZM217.312 4.456L214.16 13H212.24L210.032 7.112L207.792 13H205.872L202.736 4.456H204.624L206.88 10.76L209.232 4.456H210.912L213.216 10.792L215.536 4.456H217.312Z" fill="#393939"/>
</svg>
