<svg width="219" height="17" viewBox="0 0 219 17" fill="none" xmlns="http://www.w3.org/2000/svg">
<path d="M9.768 10.408H4.168L3.064 13H0.92L5.96 1.8H8.008L13.064 13H10.888L9.768 10.408ZM9.08 8.776L6.968 3.88L4.872 8.776H9.08ZM19.0324 4.36C19.8644 4.36 20.6057 4.54133 21.2564 4.904C21.9177 5.26667 22.435 5.77867 22.8084 6.44C23.1817 7.10133 23.3684 7.864 23.3684 8.728C23.3684 9.592 23.1817 10.36 22.8084 11.032C22.435 11.6933 21.9177 12.2053 21.2564 12.568C20.6057 12.9307 19.8644 13.112 19.0324 13.112C17.8804 13.112 16.9684 12.728 16.2964 11.96V16.104H14.2964V4.456H16.2004V5.576C16.531 5.17067 16.9364 4.86667 17.4164 4.664C17.907 4.46133 18.4457 4.36 19.0324 4.36ZM18.8084 11.4C19.5444 11.4 20.147 11.1547 20.6164 10.664C21.0964 10.1733 21.3364 9.528 21.3364 8.728C21.3364 7.928 21.0964 7.28267 20.6164 6.792C20.147 6.30133 19.5444 6.056 18.8084 6.056C18.3284 6.056 17.8964 6.168 17.5124 6.392C17.1284 6.60533 16.8244 6.91467 16.6004 7.32C16.3764 7.72533 16.2644 8.19467 16.2644 8.728C16.2644 9.26133 16.3764 9.73067 16.6004 10.136C16.8244 10.5413 17.1284 10.856 17.5124 11.08C17.8964 11.2933 18.3284 11.4 18.8084 11.4ZM30.0011 4.36C30.8331 4.36 31.5745 4.54133 32.2251 4.904C32.8865 5.26667 33.4038 5.77867 33.7771 6.44C34.1505 7.10133 34.3371 7.864 34.3371 8.728C34.3371 9.592 34.1505 10.36 33.7771 11.032C33.4038 11.6933 32.8865 12.2053 32.2251 12.568C31.5745 12.9307 30.8331 13.112 30.0011 13.112C28.8491 13.112 27.9371 12.728 27.2651 11.96V16.104H25.2651V4.456H27.1691V5.576C27.4998 5.17067 27.9051 4.86667 28.3851 4.664C28.8758 4.46133 29.4145 4.36 30.0011 4.36ZM29.7771 11.4C30.5131 11.4 31.1158 11.1547 31.5851 10.664C32.0651 10.1733 32.3051 9.528 32.3051 8.728C32.3051 7.928 32.0651 7.28267 31.5851 6.792C31.1158 6.30133 30.5131 6.056 29.7771 6.056C29.2971 6.056 28.8651 6.168 28.4811 6.392C28.0971 6.60533 27.7931 6.91467 27.5691 7.32C27.3451 7.72533 27.2331 8.19467 27.2331 8.728C27.2331 9.26133 27.3451 9.73067 27.5691 10.136C27.7931 10.5413 28.0971 10.856 28.4811 11.08C28.8651 11.2933 29.2971 11.4 29.7771 11.4ZM36.2339 1.128H38.2339V13H36.2339V1.128ZM48.8589 4.456L44.8589 13.688C44.4855 14.616 44.0322 15.2667 43.4989 15.64C42.9655 16.024 42.3202 16.216 41.5629 16.216C41.1362 16.216 40.7149 16.1467 40.2989 16.008C39.8829 15.8693 39.5415 15.6773 39.2749 15.432L40.0749 13.96C40.2669 14.1413 40.4909 14.2853 40.7469 14.392C41.0135 14.4987 41.2802 14.552 41.5469 14.552C41.8989 14.552 42.1869 14.4613 42.4109 14.28C42.6455 14.0987 42.8589 13.7947 43.0509 13.368L43.1949 13.032L39.4669 4.456H41.5469L44.2349 10.776L46.9389 4.456H48.8589ZM58.0028 2.632C57.1601 2.632 56.7388 3.09067 56.7388 4.008V4.52H59.0908V6.12H56.8028V13H54.8028V6.12H53.3948V4.52H54.8028V3.976C54.8028 3.05867 55.0694 2.33867 55.6028 1.816C56.1361 1.28267 56.8881 1.016 57.8588 1.016C58.6268 1.016 59.2294 1.17067 59.6668 1.48L59.1068 2.984C58.7654 2.74933 58.3974 2.632 58.0028 2.632ZM64.152 13.112C63.288 13.112 62.5093 12.9253 61.816 12.552C61.1227 12.1787 60.5787 11.6613 60.184 11C59.8 10.328 59.608 9.57067 59.608 8.728C59.608 7.88533 59.8 7.13333 60.184 6.472C60.5787 5.81067 61.1227 5.29333 61.816 4.92C62.5093 4.54667 63.288 4.36 64.152 4.36C65.0267 4.36 65.8107 4.54667 66.504 4.92C67.1973 5.29333 67.736 5.81067 68.12 6.472C68.5147 7.13333 68.712 7.88533 68.712 8.728C68.712 9.57067 68.5147 10.328 68.12 11C67.736 11.6613 67.1973 12.1787 66.504 12.552C65.8107 12.9253 65.0267 13.112 64.152 13.112ZM64.152 11.4C64.888 11.4 65.496 11.1547 65.976 10.664C66.456 10.1733 66.696 9.528 66.696 8.728C66.696 7.928 66.456 7.28267 65.976 6.792C65.496 6.30133 64.888 6.056 64.152 6.056C63.416 6.056 62.808 6.30133 62.328 6.792C61.8587 7.28267 61.624 7.928 61.624 8.728C61.624 9.528 61.8587 10.1733 62.328 10.664C62.808 11.1547 63.416 11.4 64.152 11.4ZM72.5285 5.704C73.1045 4.808 74.1178 4.36 75.5685 4.36V6.264C75.3978 6.232 75.2432 6.216 75.1045 6.216C74.3258 6.216 73.7178 6.44533 73.2805 6.904C72.8432 7.352 72.6245 8.00267 72.6245 8.856V13H70.6245V4.456H72.5285V5.704ZM87.2051 13.192C86.0425 13.192 84.9918 12.9413 84.0531 12.44C83.1251 11.9387 82.3945 11.2507 81.8611 10.376C81.3385 9.49067 81.0771 8.49867 81.0771 7.4C81.0771 6.30133 81.3385 5.31467 81.8611 4.44C82.3945 3.55467 83.1251 2.86133 84.0531 2.36C84.9918 1.85867 86.0425 1.608 87.2051 1.608C88.3678 1.608 89.4131 1.85867 90.3411 2.36C91.2691 2.86133 91.9998 3.55467 92.5331 4.44C93.0665 5.31467 93.3331 6.30133 93.3331 7.4C93.3331 8.49867 93.0665 9.49067 92.5331 10.376C91.9998 11.2507 91.2691 11.9387 90.3411 12.44C89.4131 12.9413 88.3678 13.192 87.2051 13.192ZM87.2051 10.984C87.8665 10.984 88.4638 10.8347 88.9971 10.536C89.5305 10.2267 89.9465 9.8 90.2451 9.256C90.5545 8.712 90.7091 8.09333 90.7091 7.4C90.7091 6.70667 90.5545 6.088 90.2451 5.544C89.9465 5 89.5305 4.57867 88.9971 4.28C88.4638 3.97067 87.8665 3.816 87.2051 3.816C86.5438 3.816 85.9465 3.97067 85.4131 4.28C84.8798 4.57867 84.4585 5 84.1491 5.544C83.8505 6.088 83.7011 6.70667 83.7011 7.4C83.7011 8.09333 83.8505 8.712 84.1491 9.256C84.4585 9.8 84.8798 10.2267 85.4131 10.536C85.9465 10.8347 86.5438 10.984 87.2051 10.984ZM100.337 4.264C101.404 4.264 102.262 4.584 102.913 5.224C103.574 5.864 103.905 6.81333 103.905 8.072V13H101.409V8.456C101.409 7.77333 101.26 7.26667 100.961 6.936C100.662 6.59467 100.23 6.424 99.6651 6.424C99.0358 6.424 98.5345 6.62133 98.1611 7.016C97.7878 7.4 97.6011 7.976 97.6011 8.744V13H95.1051V4.392H97.4891V5.4C97.8198 5.03733 98.2305 4.76 98.7211 4.568C99.2118 4.36533 99.7505 4.264 100.337 4.264ZM106.168 1.128H108.664V13H106.168V1.128ZM110.98 4.392H113.476V13H110.98V4.392ZM112.228 3.192C111.769 3.192 111.396 3.05867 111.108 2.792C110.82 2.52533 110.676 2.19467 110.676 1.8C110.676 1.40533 110.82 1.07467 111.108 0.808C111.396 0.541333 111.769 0.407999 112.228 0.407999C112.687 0.407999 113.06 0.535999 113.348 0.792C113.636 1.048 113.78 1.368 113.78 1.752C113.78 2.168 113.636 2.51467 113.348 2.792C113.06 3.05867 112.687 3.192 112.228 3.192ZM121.025 4.264C122.091 4.264 122.95 4.584 123.601 5.224C124.262 5.864 124.593 6.81333 124.593 8.072V13H122.097V8.456C122.097 7.77333 121.947 7.26667 121.649 6.936C121.35 6.59467 120.918 6.424 120.353 6.424C119.723 6.424 119.222 6.62133 118.849 7.016C118.475 7.4 118.289 7.976 118.289 8.744V13H115.793V4.392H118.177V5.4C118.507 5.03733 118.918 4.76 119.409 4.568C119.899 4.36533 120.438 4.264 121.025 4.264ZM135.381 8.728C135.381 8.76 135.365 8.984 135.333 9.4H128.821C128.938 9.93333 129.216 10.3547 129.653 10.664C130.09 10.9733 130.634 11.128 131.285 11.128C131.733 11.128 132.128 11.064 132.469 10.936C132.821 10.7973 133.146 10.584 133.445 10.296L134.773 11.736C133.962 12.664 132.778 13.128 131.221 13.128C130.25 13.128 129.392 12.9413 128.645 12.568C127.898 12.184 127.322 11.656 126.917 10.984C126.512 10.312 126.309 9.54933 126.309 8.696C126.309 7.85333 126.506 7.096 126.901 6.424C127.306 5.74133 127.856 5.21333 128.549 4.84C129.253 4.456 130.037 4.264 130.901 4.264C131.744 4.264 132.506 4.44533 133.189 4.808C133.872 5.17067 134.405 5.69333 134.789 6.376C135.184 7.048 135.381 7.832 135.381 8.728ZM130.917 6.152C130.352 6.152 129.877 6.312 129.493 6.632C129.109 6.952 128.874 7.38933 128.789 7.944H133.029C132.944 7.4 132.709 6.968 132.325 6.648C131.941 6.31733 131.472 6.152 130.917 6.152ZM141.817 1.8H143.897V13H141.817V1.8ZM151.582 4.36C152.659 4.36 153.523 4.67467 154.174 5.304C154.825 5.93333 155.15 6.86667 155.15 8.104V13H153.15V8.36C153.15 7.61333 152.974 7.05333 152.622 6.68C152.27 6.296 151.769 6.104 151.118 6.104C150.382 6.104 149.801 6.328 149.374 6.776C148.947 7.21333 148.734 7.848 148.734 8.68V13H146.734V4.456H148.638V5.56C148.969 5.16533 149.385 4.86667 149.886 4.664C150.387 4.46133 150.953 4.36 151.582 4.36ZM162.823 12.536C162.588 12.728 162.3 12.872 161.959 12.968C161.628 13.064 161.276 13.112 160.903 13.112C159.964 13.112 159.239 12.8667 158.727 12.376C158.215 11.8853 157.959 11.1707 157.959 10.232V6.12H156.551V4.52H157.959V2.568H159.959V4.52H162.247V6.12H159.959V10.184C159.959 10.6 160.06 10.92 160.263 11.144C160.466 11.3573 160.759 11.464 161.143 11.464C161.591 11.464 161.964 11.3467 162.263 11.112L162.823 12.536ZM172.219 8.776C172.219 8.91467 172.208 9.112 172.187 9.368H165.483C165.6 9.99733 165.904 10.4987 166.395 10.872C166.896 11.2347 167.515 11.416 168.251 11.416C169.19 11.416 169.963 11.1067 170.571 10.488L171.643 11.72C171.259 12.1787 170.774 12.5253 170.187 12.76C169.6 12.9947 168.939 13.112 168.203 13.112C167.264 13.112 166.438 12.9253 165.723 12.552C165.008 12.1787 164.454 11.6613 164.059 11C163.675 10.328 163.483 9.57067 163.483 8.728C163.483 7.896 163.67 7.14933 164.043 6.488C164.427 5.816 164.955 5.29333 165.627 4.92C166.299 4.54667 167.056 4.36 167.899 4.36C168.731 4.36 169.472 4.54667 170.123 4.92C170.784 5.28267 171.296 5.8 171.659 6.472C172.032 7.13333 172.219 7.90133 172.219 8.776ZM167.899 5.96C167.259 5.96 166.715 6.152 166.267 6.536C165.83 6.90933 165.563 7.41067 165.467 8.04H170.315C170.23 7.42133 169.968 6.92 169.531 6.536C169.094 6.152 168.55 5.96 167.899 5.96ZM176.044 5.704C176.62 4.808 177.633 4.36 179.084 4.36V6.264C178.913 6.232 178.759 6.216 178.62 6.216C177.841 6.216 177.233 6.44533 176.796 6.904C176.359 7.352 176.14 8.00267 176.14 8.856V13H174.14V4.456H176.044V5.704ZM189.093 4.456L185.429 13H183.365L179.701 4.456H181.781L184.437 10.792L187.173 4.456H189.093ZM190.343 4.456H192.343V13H190.343V4.456ZM191.351 3.048C190.989 3.048 190.685 2.936 190.439 2.712C190.194 2.47733 190.071 2.18933 190.071 1.848C190.071 1.50667 190.194 1.224 190.439 0.999999C190.685 0.765333 190.989 0.648 191.351 0.648C191.714 0.648 192.018 0.76 192.263 0.983999C192.509 1.19733 192.631 1.46933 192.631 1.8C192.631 2.152 192.509 2.45067 192.263 2.696C192.029 2.93067 191.725 3.048 191.351 3.048ZM203 8.776C203 8.91467 202.99 9.112 202.968 9.368H196.264C196.382 9.99733 196.686 10.4987 197.176 10.872C197.678 11.2347 198.296 11.416 199.032 11.416C199.971 11.416 200.744 11.1067 201.352 10.488L202.424 11.72C202.04 12.1787 201.555 12.5253 200.968 12.76C200.382 12.9947 199.72 13.112 198.984 13.112C198.046 13.112 197.219 12.9253 196.504 12.552C195.79 12.1787 195.235 11.6613 194.84 11C194.456 10.328 194.264 9.57067 194.264 8.728C194.264 7.896 194.451 7.14933 194.824 6.488C195.208 5.816 195.736 5.29333 196.408 4.92C197.08 4.54667 197.838 4.36 198.68 4.36C199.512 4.36 200.254 4.54667 200.904 4.92C201.566 5.28267 202.078 5.8 202.44 6.472C202.814 7.13333 203 7.90133 203 8.776ZM198.68 5.96C198.04 5.96 197.496 6.152 197.048 6.536C196.611 6.90933 196.344 7.41067 196.248 8.04H201.096C201.011 7.42133 200.75 6.92 200.312 6.536C199.875 6.152 199.331 5.96 198.68 5.96ZM218.093 4.456L214.941 13H213.021L210.813 7.112L208.573 13H206.653L203.517 4.456H205.405L207.661 10.76L210.013 4.456H211.693L213.997 10.792L216.317 4.456H218.093Z" fill="#393939"/>
</svg>
