<svg width="113" height="20" viewBox="0 0 113 20" fill="none" xmlns="http://www.w3.org/2000/svg">
<path d="M0.66 2H7.02C8.54 2 9.88 2.29333 11.04 2.88C12.2133 3.45333 13.12 4.26667 13.76 5.32C14.4133 6.37333 14.74 7.6 14.74 9C14.74 10.4 14.4133 11.6267 13.76 12.68C13.12 13.7333 12.2133 14.5533 11.04 15.14C9.88 15.7133 8.54 16 7.02 16H0.66V2ZM6.86 13.34C8.26 13.34 9.37333 12.9533 10.2 12.18C11.04 11.3933 11.46 10.3333 11.46 9C11.46 7.66667 11.04 6.61333 10.2 5.84C9.37333 5.05333 8.26 4.66 6.86 4.66H3.9V13.34H6.86ZM16.9634 5.24H20.0834V16H16.9634V5.24ZM18.5234 3.74C17.9501 3.74 17.4834 3.57333 17.1234 3.24C16.7634 2.90667 16.5834 2.49333 16.5834 2C16.5834 1.50667 16.7634 1.09333 17.1234 0.76C17.4834 0.426666 17.9501 0.259999 18.5234 0.259999C19.0968 0.259999 19.5634 0.419999 19.9234 0.74C20.2834 1.06 20.4634 1.46 20.4634 1.94C20.4634 2.46 20.2834 2.89333 19.9234 3.24C19.5634 3.57333 19.0968 3.74 18.5234 3.74ZM26.5991 16.16C25.7057 16.16 24.8324 16.0533 23.9791 15.84C23.1257 15.6133 22.4457 15.3333 21.9391 15L22.9791 12.76C23.4591 13.0667 24.0391 13.32 24.7191 13.52C25.3991 13.7067 26.0657 13.8 26.7191 13.8C28.0391 13.8 28.6991 13.4733 28.6991 12.82C28.6991 12.5133 28.5191 12.2933 28.1591 12.16C27.7991 12.0267 27.2457 11.9133 26.4991 11.82C25.6191 11.6867 24.8924 11.5333 24.3191 11.36C23.7457 11.1867 23.2457 10.88 22.8191 10.44C22.4057 10 22.1991 9.37333 22.1991 8.56C22.1991 7.88 22.3924 7.28 22.7791 6.76C23.1791 6.22667 23.7524 5.81333 24.4991 5.52C25.2591 5.22667 26.1524 5.08 27.1791 5.08C27.9391 5.08 28.6924 5.16667 29.4391 5.34C30.1991 5.5 30.8257 5.72667 31.3191 6.02L30.2791 8.24C29.3324 7.70667 28.2991 7.44 27.1791 7.44C26.5124 7.44 26.0124 7.53333 25.6791 7.72C25.3457 7.90667 25.1791 8.14667 25.1791 8.44C25.1791 8.77333 25.3591 9.00667 25.7191 9.14C26.0791 9.27333 26.6524 9.4 27.4391 9.52C28.3191 9.66667 29.0391 9.82667 29.5991 10C30.1591 10.16 30.6457 10.46 31.0591 10.9C31.4724 11.34 31.6791 11.9533 31.6791 12.74C31.6791 13.4067 31.4791 14 31.0791 14.52C30.6791 15.04 30.0924 15.4467 29.3191 15.74C28.5591 16.02 27.6524 16.16 26.5991 16.16ZM38.8041 16.16C37.6574 16.16 36.6241 15.9267 35.7041 15.46C34.7974 14.98 34.0841 14.32 33.5641 13.48C33.0574 12.64 32.8041 11.6867 32.8041 10.62C32.8041 9.55333 33.0574 8.6 33.5641 7.76C34.0841 6.92 34.7974 6.26667 35.7041 5.8C36.6241 5.32 37.6574 5.08 38.8041 5.08C39.9374 5.08 40.9241 5.32 41.7641 5.8C42.6174 6.26667 43.2374 6.94 43.6241 7.82L41.2041 9.12C40.6441 8.13333 39.8374 7.64 38.7841 7.64C37.9707 7.64 37.2974 7.90667 36.7641 8.44C36.2307 8.97333 35.9641 9.7 35.9641 10.62C35.9641 11.54 36.2307 12.2667 36.7641 12.8C37.2974 13.3333 37.9707 13.6 38.7841 13.6C39.8507 13.6 40.6574 13.1067 41.2041 12.12L43.6241 13.44C43.2374 14.2933 42.6174 14.96 41.7641 15.44C40.9241 15.92 39.9374 16.16 38.8041 16.16ZM48.4005 6.66C48.7738 6.14 49.2738 5.74667 49.9005 5.48C50.5405 5.21333 51.2738 5.08 52.1005 5.08V7.96C51.7538 7.93333 51.5205 7.92 51.4005 7.92C50.5071 7.92 49.8071 8.17333 49.3005 8.68C48.7938 9.17333 48.5405 9.92 48.5405 10.92V16H45.4205V5.24H48.4005V6.66ZM53.9556 5.24H57.0756V16H53.9556V5.24ZM55.5156 3.74C54.9423 3.74 54.4756 3.57333 54.1156 3.24C53.7556 2.90667 53.5756 2.49333 53.5756 2C53.5756 1.50667 53.7556 1.09333 54.1156 0.76C54.4756 0.426666 54.9423 0.259999 55.5156 0.259999C56.089 0.259999 56.5556 0.419999 56.9156 0.74C57.2756 1.06 57.4556 1.46 57.4556 1.94C57.4556 2.46 57.2756 2.89333 56.9156 3.24C56.5556 3.57333 56.089 3.74 55.5156 3.74ZM66.3313 5.08C67.3313 5.08 68.2379 5.31333 69.0513 5.78C69.8779 6.23333 70.5246 6.88 70.9913 7.72C71.4579 8.54667 71.6913 9.51333 71.6913 10.62C71.6913 11.7267 71.4579 12.7 70.9913 13.54C70.5246 14.3667 69.8779 15.0133 69.0513 15.48C68.2379 15.9333 67.3313 16.16 66.3313 16.16C64.9579 16.16 63.8779 15.7267 63.0913 14.86V19.88H59.9713V5.24H62.9513V6.48C63.7246 5.54667 64.8513 5.08 66.3313 5.08ZM65.7913 13.6C66.5913 13.6 67.2446 13.3333 67.7513 12.8C68.2713 12.2533 68.5312 11.5267 68.5312 10.62C68.5312 9.71333 68.2713 8.99333 67.7513 8.46C67.2446 7.91333 66.5913 7.64 65.7913 7.64C64.9913 7.64 64.3313 7.91333 63.8112 8.46C63.3046 8.99333 63.0513 9.71333 63.0513 10.62C63.0513 11.5267 63.3046 12.2533 63.8112 12.8C64.3313 13.3333 64.9913 13.6 65.7913 13.6ZM80.7198 15.48C80.4132 15.7067 80.0332 15.88 79.5798 16C79.1398 16.1067 78.6732 16.16 78.1798 16.16C76.8998 16.16 75.9065 15.8333 75.1998 15.18C74.5065 14.5267 74.1598 13.5667 74.1598 12.3V7.88H72.4998V5.48H74.1598V2.86H77.2798V5.48H79.9598V7.88H77.2798V12.26C77.2798 12.7133 77.3932 13.0667 77.6198 13.32C77.8598 13.56 78.1932 13.68 78.6198 13.68C79.1132 13.68 79.5332 13.5467 79.8798 13.28L80.7198 15.48ZM82.4713 5.24H85.5913V16H82.4713V5.24ZM84.0313 3.74C83.4579 3.74 82.9913 3.57333 82.6313 3.24C82.2713 2.90667 82.0913 2.49333 82.0913 2C82.0913 1.50667 82.2713 1.09333 82.6313 0.76C82.9913 0.426666 83.4579 0.259999 84.0313 0.259999C84.6046 0.259999 85.0713 0.419999 85.4313 0.74C85.7913 1.06 85.9713 1.46 85.9713 1.94C85.9713 2.46 85.7913 2.89333 85.4313 3.24C85.0713 3.57333 84.6046 3.74 84.0313 3.74ZM93.6069 16.16C92.4735 16.16 91.4535 15.9267 90.5469 15.46C89.6535 14.98 88.9535 14.32 88.4469 13.48C87.9402 12.64 87.6869 11.6867 87.6869 10.62C87.6869 9.55333 87.9402 8.6 88.4469 7.76C88.9535 6.92 89.6535 6.26667 90.5469 5.8C91.4535 5.32 92.4735 5.08 93.6069 5.08C94.7402 5.08 95.7535 5.32 96.6469 5.8C97.5402 6.26667 98.2402 6.92 98.7469 7.76C99.2535 8.6 99.5069 9.55333 99.5069 10.62C99.5069 11.6867 99.2535 12.64 98.7469 13.48C98.2402 14.32 97.5402 14.98 96.6469 15.46C95.7535 15.9267 94.7402 16.16 93.6069 16.16ZM93.6069 13.6C94.4069 13.6 95.0602 13.3333 95.5669 12.8C96.0869 12.2533 96.3469 11.5267 96.3469 10.62C96.3469 9.71333 96.0869 8.99333 95.5669 8.46C95.0602 7.91333 94.4069 7.64 93.6069 7.64C92.8069 7.64 92.1469 7.91333 91.6269 8.46C91.1069 8.99333 90.8469 9.71333 90.8469 10.62C90.8469 11.5267 91.1069 12.2533 91.6269 12.8C92.1469 13.3333 92.8069 13.6 93.6069 13.6ZM108.132 5.08C109.466 5.08 110.539 5.48 111.352 6.28C112.179 7.08 112.592 8.26667 112.592 9.84V16H109.472V10.32C109.472 9.46667 109.286 8.83333 108.912 8.42C108.539 7.99333 107.999 7.78 107.292 7.78C106.506 7.78 105.879 8.02667 105.412 8.52C104.946 9 104.712 9.72 104.712 10.68V16H101.592V5.24H104.572V6.5C104.986 6.04667 105.499 5.7 106.112 5.46C106.726 5.20667 107.399 5.08 108.132 5.08Z" fill="#393939"/>
</svg>
